<svg xmlns="http://www.w3.org/2000/svg" version="1.1" xmlns:xlink="http://www.w3.org/1999/xlink" xmlns:svgjs="http://svgjs.dev/svgjs" viewBox="0 0 7.429171098590476 2.01436100896277"><g transform="matrix(0.7190751352657636,0,0,0.7190751352657636,1.326461489963907,0.7425608547035841)"><g transform="matrix(1,0,0,1,0,0)" clip-path="url(#SvgjsClipPath35374)"><g clip-path="url(#SvgjsClipPath353721e7717bc-2469-47a6-b626-6587aa7b2b21)"><path d=" M 3.4639450553509885 0.9032399967688082 C 3.4639450553509885 0.9465722639613462 3.4288173193123344 0.9816999999999999 3.3854850521197966 0.9816999999999999 C 3.3421527849272583 0.9816999999999999 3.3070250488886046 0.9465722639613462 3.3070250488886046 0.9032399967688082 C 3.3070250488886046 0.8599077295762699 3.3421527849272583 0.8247799935376162 3.3854850521197966 0.8247799935376162 C 3.4288173193123344 0.8247799935376162 3.4639450553509885 0.8599077295762699 3.4639450553509885 0.9032399967688082 Z" fill="url(#gradient-894b6b78-71cb-4268-92b3-04b1be63ba5f_0)" transform="matrix(1,0,0,1,0,0)" fill-rule="nonzero"></path></g><g clip-path="url(#SvgjsClipPath353721e7717bc-2469-47a6-b626-6587aa7b2b21)"><path d=" M 3.3716372250962623 0.4694295492487479 C 3.3794369558302817 0.48294687920728085 3.3822461808827886 0.4986124400883193 3.379569154656282 0.5142119015563573 C 3.376528581658275 0.5318273951209005 3.3668119679472506 0.5472285583499381 3.352203997674215 0.5575400667779633 C 3.3375960274011796 0.5678515752059885 3.319848335010636 0.5718505896924984 3.302232841446093 0.5688100166944908 C 3.2658451145895038 0.5625305724594755 3.241355282072944 0.5278283806343906 3.2476677760144597 0.4914406537778018 C 3.253947220249475 0.4550529269212128 3.2886494120745597 0.4305961441111531 3.325037138931149 0.43687558834616835 C 3.342652632495692 0.43991616134417577 3.3580537957247296 0.4496327750551996 3.3683322544462544 0.4642407453282352 C 3.3695220438802576 0.4659262803597394 3.3706457339012603 0.4676779148042437 3.3716702748027627 0.4694625989552481 Z M 3.293606868049572 0.5143110506758576 C 3.2969118386995797 0.5200616996068718 3.302662487630594 0.5243251117453821 3.309669025408611 0.5255479508858851 C 3.315750171404626 0.5266055414938876 3.321864367107141 0.5252174538208844 3.3268879224951533 0.5216480855188755 C 3.3319445275896657 0.5180787172168667 3.3352825479461736 0.5127907641768539 3.3363401385541764 0.506709618180839 C 3.3385214191831816 0.4941507297108083 3.330060694319161 0.48218673595777906 3.3175348555556305 0.4800054553287737 C 3.3049759670856 0.47782417469976834 3.2930119733325705 0.48628489956378906 3.2908306927035653 0.4988107383273196 C 3.289872251215063 0.504330039312833 3.2909628915295652 0.5097501911788463 3.293573818343072 0.5142780009693575 Z" fill="url(#gradient-894b6b78-71cb-4268-92b3-04b1be63ba5f_1)" transform="matrix(1,0,0,1,0,0)" fill-rule="nonzero"></path></g><g clip-path="url(#SvgjsClipPath353721e7717bc-2469-47a6-b626-6587aa7b2b21)"><path d=" M 3.287063026162556 0.782079772739512 C 3.3126765487001184 0.8184014001831009 3.350882009414212 0.8425607356346599 3.394639820820319 0.8500960687166784 C 3.4850307680980395 0.8657285798912165 3.5712574523567504 0.8049171199310677 3.5868569138247883 0.714526172653347 L 3.589897486822796 0.6969767785018041 C 3.5785944871997684 0.6906973342667888 3.5677872331742417 0.6834263988367709 3.5577401223982172 0.6750317733857506 L 3.5406864738441755 0.6608203995907157 L 3.533018941936157 0.7052061554203242 C 3.5225421849756313 0.7658854165544725 3.46460604948099 0.8067348537885725 3.4039267883468414 0.7962580968280469 C 3.3745455992682696 0.7911684420270343 3.3488659773177067 0.7749410361354946 3.331680129937665 0.7505834024449353 C 3.314494282557623 0.7261596693413757 3.3078182418446067 0.6965801820238032 3.312907896645619 0.6671659432387312 L 3.334324106457671 0.5432625935699285 L 3.2804861345690397 0.5339756260434058 L 3.259069924756987 0.6578789757122085 C 3.251501541968469 0.7016698368248155 3.261416453918493 0.7457581452959233 3.2870299764560555 0.782079772739512 Z" fill="url(#gradient-894b6b78-71cb-4268-92b3-04b1be63ba5f_2)" transform="matrix(1,0,0,1,0,0)" fill-rule="nonzero"></path></g><g clip-path="url(#SvgjsClipPath353721e7717bc-2469-47a6-b626-6587aa7b2b21)"><path d=" M 3.0119903189623836 0.6155423016856049 C 3.0119903189623836 0.658874568878143 2.97686258292373 0.6940023049167967 2.9335303157311916 0.6940023049167967 C 2.890198048538654 0.6940023049167967 2.8550703125 0.658874568878143 2.8550703125 0.6155423016856049 C 2.8550703125 0.5722100344930668 2.890198048538654 0.5370822984544131 2.9335303157311916 0.5370822984544131 C 2.97686258292373 0.5370822984544131 3.0119903189623836 0.5722100344930668 3.0119903189623836 0.6155423016856049 Z" fill="url(#gradient-894b6b78-71cb-4268-92b3-04b1be63ba5f_3)" transform="matrix(1,0,0,1,0,0)" fill-rule="nonzero"></path></g><g clip-path="url(#SvgjsClipPath353721e7717bc-2469-47a6-b626-6587aa7b2b21)"><path d=" M 3.3022989408590933 0.38667308417254564 C 3.294499210125074 0.4001904141310787 3.282336918133044 0.4104688728526037 3.267497599914508 0.4159220744251171 C 3.250708349012467 0.4221023695406322 3.2325310104374227 0.42137527599763047 3.216303604545883 0.4138729926221121 C 3.2000761986543433 0.4063707092465937 3.187748658129813 0.392985578114061 3.181568363014298 0.3762293769185201 C 3.1688111763052667 0.34159328450643556 3.18662496810881 0.3030242770208411 3.221294110227395 0.29030014001831006 C 3.2559302026394796 0.2775429533092788 3.294499210125074 0.2953567451128225 3.3072233471276054 0.33002588723140724 C 3.31340364224312 0.3468151381334482 3.3126765487001184 0.36499247670849266 3.3051742653246 0.38121988260003237 C 3.304314972955598 0.38310371587053693 3.3033565314670956 0.38492144972804154 3.3023319905655932 0.38670613387904584 Z M 3.2244007826384027 0.34152718509343527 C 3.221095811988395 0.34727783402444945 3.2202365196193927 0.3543835209219667 3.2227152476068985 0.3610595616349831 C 3.2248304288229037 0.36684326027249714 3.229093840961414 0.37147021918250855 3.234712291066428 0.37404809628951474 C 3.2402976914649413 0.37662597339652115 3.246577135699957 0.37689037104852174 3.252360834337471 0.3747421401260166 C 3.2643248280905004 0.3703465291615057 3.270472073499515 0.35706054714847335 3.2660764625350045 0.3450965533954441 C 3.261680851570494 0.3331325596424147 3.2483948695574614 0.3269853142333998 3.236430875804432 0.3313809251979105 C 3.2311759724709193 0.33333085788141525 3.2270117094519093 0.33696632559642414 3.2244338323449027 0.3414941353869353 Z" fill="url(#gradient-894b6b78-71cb-4268-92b3-04b1be63ba5f_4)" transform="matrix(1,0,0,1,0,0)" fill-rule="nonzero"></path></g><g clip-path="url(#SvgjsClipPath353721e7717bc-2469-47a6-b626-6587aa7b2b21)"><path d=" M 2.989252120890328 0.4697269966072487 C 2.9706120864242824 0.5100476385373471 2.968794352566778 0.5552265873229576 2.9841294163828156 0.5969022672195594 C 3.015791035209893 0.6829637029457697 3.111569084647127 0.727250309655878 3.1976635700798375 0.6955886908288006 L 3.214353671862378 0.6894414454197855 C 3.2141553736233774 0.6765190101782539 3.21504771569888 0.6635304755237224 3.2172950957408855 0.6506410899886907 L 3.2210627622818944 0.6287621842856372 L 3.178792187668291 0.6442955463406752 C 3.12098825099965 0.6655465076202272 3.0566735221504926 0.6358348214766545 3.035389511164441 0.5780308848080131 C 3.0250780027364157 0.5500377834024448 3.0263008418769184 0.5196981528353706 3.038826680640449 0.4926304432118044 C 3.05135251940398 0.4655296838817382 3.0736610712915344 0.444972766438688 3.1016541726971028 0.4346612580106627 L 3.219674674608891 0.39123394366955666 L 3.200803292197345 0.3399738488879315 L 3.0827827902855565 0.3833681135225375 C 3.0410740606824547 0.39870317733857497 3.0078591056498736 0.4293402552641499 2.989219071183828 0.4696939469007484 Z" fill="url(#gradient-894b6b78-71cb-4268-92b3-04b1be63ba5f_5)" transform="matrix(1,0,0,1,0,0)" fill-rule="nonzero"></path></g><g clip-path="url(#SvgjsClipPath353721e7717bc-2469-47a6-b626-6587aa7b2b21)"><path d=" M 3.03519121292544 0.08030230491679685 C 3.03519121292544 0.12363457210933498 3.0000634768867864 0.15876230814798858 2.9567312096942486 0.15876230814798858 C 2.9133989425017104 0.15876230814798858 2.8782712064630567 0.12363457210933498 2.8782712064630567 0.08030230491679685 C 2.8782712064630567 0.03697003772425872 2.9133989425017104 0.0018423016856051189 2.9567312096942486 0.0018423016856051189 C 3.0000634768867864 0.0018423016856051189 3.03519121292544 0.03697003772425872 3.03519121292544 0.08030230491679685 Z" fill="url(#gradient-894b6b78-71cb-4268-92b3-04b1be63ba5f_6)" transform="matrix(1,0,0,1,0,0)" fill-rule="nonzero"></path></g><g clip-path="url(#SvgjsClipPath353721e7717bc-2469-47a6-b626-6587aa7b2b21)"><path d=" M 3.3393146121391837 0.2852435349237977 C 3.3237151506711453 0.2852435349237977 3.3087105839201087 0.27982338305778454 3.296581341634579 0.26971017286875987 C 3.2828326637305456 0.2582749744197318 3.274371938866525 0.24214671764769247 3.2727525032480207 0.224332925844149 C 3.271133067629517 0.20651913404060546 3.27655321949553 0.18916803812806304 3.287988417944558 0.17541936022402937 C 3.311618958092116 0.14706271204696014 3.353922582412219 0.14319589638645064 3.3822792305892886 0.1668594862405085 C 3.410635878766358 0.19049002638806622 3.4144696447203673 0.23279365070816965 3.3908391045728097 0.2611502988852389 C 3.3794039061237813 0.27489897678927244 3.363275649351742 0.28335970165329316 3.345461857548199 0.28497913727179713 C 3.3433797260386937 0.28517743551079766 3.3413306442356885 0.28524353492379784 3.3392815624326837 0.28524353492379784 Z M 3.339446810965184 0.19521613441757768 C 3.332836869665168 0.19521613441757768 3.3262269283651515 0.19805840917658468 3.3216660688681405 0.20351161074909796 C 3.317733153794631 0.20823771877860953 3.3158493205241264 0.2142527653616242 3.316411165534628 0.2203669610641391 C 3.316973010545129 0.22651420647315412 3.319881384717136 0.23206655716516766 3.3246405424531478 0.23603252194517743 C 3.3344232555771716 0.24419579945069736 3.3490312258502075 0.24287381119069412 3.357161453649227 0.23309109806667028 C 3.365324731154747 0.22330838494264638 3.3639696931882437 0.20873346437611068 3.35422002977072 0.2005701868705908 C 3.3499235679257096 0.19696776886208195 3.344668664592197 0.19521613441757768 3.339446810965184 0.19521613441757768 Z" fill="url(#gradient-894b6b78-71cb-4268-92b3-04b1be63ba5f_7)" transform="matrix(1,0,0,1,0,0)" fill-rule="nonzero"></path></g><g clip-path="url(#SvgjsClipPath353721e7717bc-2469-47a6-b626-6587aa7b2b21)"><path d=" M 3.110841991104125 0.05564722386773657 C 3.066588434100517 0.05967928806074646 3.026565239528919 0.08066585168829776 2.9981424919388497 0.11480619850288126 C 2.939413163488206 0.1852681727610534 2.9489645286667296 0.29033318972481015 3.019426502924902 0.34906251817545375 L 3.033109081415935 0.3604646669179815 C 3.0442137827999622 0.3538216759114653 3.055913378900991 0.3481040766869513 3.068174820012521 0.34360931660294036 L 3.0889961351075717 0.33594178469492164 L 3.054393092401987 0.30712244062685123 C 3.0070659126938715 0.26769414077225484 3.000654269632856 0.1971330173945824 3.0400825694874523 0.14980583768646677 C 3.059185299844499 0.12690239108191076 3.0860547112290644 0.11279016640637629 3.1157663973726373 0.1100800904733697 C 3.1455111332227097 0.10740306424686313 3.1744626761167805 0.11642563412138518 3.1973991724278368 0.13552836447843186 L 3.294003464527573 0.2160374495126287 L 3.3289700540046585 0.1740643222575261 L 3.2323657619049224 0.0935882869298294 C 3.198225415090339 0.06513248963325985 3.155095548107733 0.05168125908772697 3.110808941397625 0.055713323280736804 Z" fill="url(#gradient-894b6b78-71cb-4268-92b3-04b1be63ba5f_8)" transform="matrix(1,0,0,1,0,0)" fill-rule="nonzero"></path></g><g clip-path="url(#SvgjsClipPath353721e7717bc-2469-47a6-b626-6587aa7b2b21)"><path d=" M 3.5103137935706017 -0.16723999676880816 C 3.5103137935706017 -0.12390772957627005 3.475186057531948 -0.0887799935376164 3.4318537903394097 -0.0887799935376164 C 3.3885215231468715 -0.0887799935376164 3.3533937871082182 -0.12390772957627005 3.3533937871082182 -0.16723999676880816 C 3.3533937871082182 -0.21057226396134626 3.3885215231468715 -0.24569999999999992 3.4318537903394097 -0.24569999999999992 C 3.475186057531948 -0.24569999999999992 3.5103137935706017 -0.21057226396134626 3.5103137935706017 -0.16723999676880816 Z" fill="url(#gradient-894b6b78-71cb-4268-92b3-04b1be63ba5f_9)" transform="matrix(1,0,0,1,0,0)" fill-rule="nonzero"></path></g><g clip-path="url(#SvgjsClipPath353721e7717bc-2469-47a6-b626-6587aa7b2b21)"><path d=" M 3.4456685676564436 0.2665704507512521 C 3.4378688369224246 0.2530531207927191 3.4350596118699173 0.23738755991168076 3.4377366380964243 0.22178809844364256 C 3.4407772110944315 0.2041726048790995 3.4504938248054553 0.18877144165006188 3.465101795078491 0.17845993322203663 C 3.4797097653515268 0.16814842479401143 3.49745745774207 0.1641494103075017 3.515072951306613 0.1671899833055091 C 3.551460678163202 0.17346942754052452 3.5759505106797618 0.2081716193656093 3.5696380167382467 0.24455934622219822 C 3.563358572503231 0.2809470730787872 3.528656380678146 0.3054038558888469 3.4922686538215575 0.2991244116538315 C 3.4746531602570143 0.2960838386558241 3.4592519970279767 0.28636722494480027 3.4489735383064515 0.27175925467176465 C 3.4477837488724488 0.2700737196402605 3.446660058851446 0.2683220851957563 3.4456355179499436 0.2665374010447519 Z M 3.523698924703134 0.2216889493241423 C 3.520393954053126 0.21593830039312828 3.514643305122112 0.21167488825461783 3.5076367673440947 0.21045204911411491 C 3.5015556213480803 0.20939445850611232 3.495441425645565 0.21078254617911568 3.490417870257553 0.21435191448112445 C 3.4853612651630406 0.21792128278313322 3.4820232448065322 0.2232092358231461 3.48096565419853 0.229290381819161 C 3.4787843735695243 0.24184927028919168 3.487245098433545 0.2538132640422209 3.4997709371970758 0.2559945446712263 C 3.5123298256671065 0.25817582530023153 3.5242938194201354 0.24971510043621092 3.526475100049141 0.23718926167268034 C 3.5274335415376434 0.23166996068716683 3.5263429012231406 0.2262498088211536 3.523731974409634 0.22172199903064255 Z" fill="url(#gradient-894b6b78-71cb-4268-92b3-04b1be63ba5f_10)" transform="matrix(1,0,0,1,0,0)" fill-rule="nonzero"></path></g><g clip-path="url(#SvgjsClipPath353721e7717bc-2469-47a6-b626-6587aa7b2b21)"><path d=" M 3.5302427665901503 -0.046079772739512026 C 3.5046292440525875 -0.08240140018310083 3.4664237833384943 -0.10656073563465987 3.4226659719323873 -0.1140960687166783 C 3.3322750246546664 -0.12972857989121647 3.246048340395956 -0.06891711993106783 3.2304488789279175 0.021473827346653096 L 3.22740830592991 0.03902322149819598 C 3.238711305552938 0.045302665733211345 3.249518559578464 0.05257360116322907 3.2595656703544886 0.06096822661424961 L 3.2766193189085304 0.07517960040928429 L 3.284286850816549 0.030793844579675822 C 3.2947636077770746 -0.029885416554472466 3.352699743271716 -0.0707348537885723 3.4133790044058645 -0.0602580968280467 C 3.4427601934844363 -0.055168442027034276 3.468439815434999 -0.03894103613549457 3.4856256628150413 -0.014583402444935056 C 3.502811510195083 0.009840330658624663 3.5094875509080996 0.03941981797619698 3.504397896107087 0.0688340567612688 L 3.4829816862950347 0.19273740643007164 L 3.536819658183666 0.2020243739565944 L 3.5582358679957187 0.07812102428779144 C 3.5658042507842374 0.03433016317518445 3.5558893388342128 -0.009758145295923337 3.5302758162966503 -0.046079772739512054 Z" fill="url(#gradient-894b6b78-71cb-4268-92b3-04b1be63ba5f_11)" transform="matrix(1,0,0,1,0,0)" fill-rule="nonzero"></path></g><g clip-path="url(#SvgjsClipPath353721e7717bc-2469-47a6-b626-6587aa7b2b21)"><path d=" M 3.9622354802527058 0.12045769831439501 C 3.9622354802527058 0.1637899655069331 3.9271077442140525 0.19891770154558674 3.8837754770215143 0.19891770154558674 C 3.840443209828976 0.19891770154558674 3.8053154737903228 0.1637899655069331 3.8053154737903228 0.12045769831439501 C 3.8053154737903228 0.07712543112185688 3.840443209828976 0.04199769508320328 3.8837754770215143 0.04199769508320328 C 3.9271077442140525 0.04199769508320328 3.9622354802527058 0.07712543112185688 3.9622354802527058 0.12045769831439501 Z" fill="url(#gradient-894b6b78-71cb-4268-92b3-04b1be63ba5f_12)" transform="matrix(1,0,0,1,0,0)" fill-rule="nonzero"></path></g><g clip-path="url(#SvgjsClipPath353721e7717bc-2469-47a6-b626-6587aa7b2b21)"><path d=" M 3.515006851893613 0.34932691582745423 C 3.522806582627632 0.3358095858689213 3.5349688746196617 0.3255311271473962 3.5498081928381984 0.3200779255748828 C 3.566597443740239 0.3138976304593678 3.5847747823152836 0.3146247240023695 3.6010021882068233 0.3221270073778879 C 3.617229594098363 0.3296292907534062 3.629557134622893 0.3430144218859389 3.635737429738408 0.3597706230814799 C 3.648494616447439 0.39440671549356443 3.6306808246438957 0.43297572297915876 3.596011682525311 0.4456998599816898 C 3.5613755901132262 0.45845704669072107 3.522806582627632 0.4406432548871775 3.510082445625101 0.40597411276859274 C 3.5039021505095858 0.38918486186655166 3.5046292440525875 0.3710075232915072 3.5121315274281057 0.3547801173999675 C 3.512990819797108 0.35289628412946294 3.5139492612856102 0.35107855027195856 3.514973802187113 0.34929386612095414 Z M 3.592905010114303 0.3944728149065646 C 3.5962099807643115 0.38872216597555054 3.5970692731333136 0.3816164790780332 3.5945905451458073 0.3749404383650169 C 3.592475363929802 0.36915673972750285 3.588211951791292 0.36452978081749143 3.582593501686278 0.36195190371048513 C 3.5770081012877646 0.35937402660347884 3.570728657052749 0.35910962895147813 3.564944958415235 0.3612578598739834 C 3.552980964662206 0.3656534708384943 3.5468337192531907 0.37893945285152664 3.5512293302177014 0.3909034466045559 C 3.555624941182212 0.40286744035758515 3.5689109231952445 0.40901468576660016 3.580874916948274 0.4046190748020895 C 3.586129820281787 0.4026691421185846 3.590294083300797 0.39903367440357584 3.592871960407803 0.3945058646130647 Z" fill="url(#gradient-894b6b78-71cb-4268-92b3-04b1be63ba5f_13)" transform="matrix(1,0,0,1,0,0)" fill-rule="nonzero"></path></g><g clip-path="url(#SvgjsClipPath353721e7717bc-2469-47a6-b626-6587aa7b2b21)"><path d=" M 3.8280867215688783 0.2662730033927513 C 3.846726756034924 0.22595236146265285 3.8485444898924284 0.18077341267704233 3.833209426076391 0.13909773278044057 C 3.8015478072493134 0.0530362970542303 3.7057697578120794 0.008749690344121985 3.619675272379369 0.040411309171199394 L 3.602985170596828 0.04655855458021435 C 3.6031834688358284 0.05948098982174599 3.6022911267603264 0.07246952447627775 3.600043746718321 0.08535891001130919 L 3.5962760801773115 0.1072378157143627 L 3.638546654790915 0.09170445365932473 C 3.6963505914595562 0.07045349237977278 3.7606653203087133 0.10016517852334539 3.7819493312947654 0.1579691151919867 C 3.7922608397227906 0.18596221659755513 3.791038000582288 0.2163018471646292 3.778512161818757 0.24336955678819538 C 3.7659863230552264 0.27047031611826156 3.743677771167672 0.29102723356131177 3.7156846697621035 0.30133874198933697 L 3.597664167850315 0.3447660563304431 L 3.6165355502618612 0.3960261511120683 L 3.73455605217365 0.35263188647746235 C 3.7762647817767516 0.3372968226614249 3.8094797368093327 0.30665974473585 3.8281197712753783 0.26630605309925137 Z" fill="url(#gradient-894b6b78-71cb-4268-92b3-04b1be63ba5f_14)" transform="matrix(1,0,0,1,0,0)" fill-rule="nonzero"></path></g><g clip-path="url(#SvgjsClipPath353721e7717bc-2469-47a6-b626-6587aa7b2b21)"><path d=" M 3.9390676359961496 0.6556976950832032 C 3.9390676359961496 0.6990299622757413 3.9039398999574955 0.734157698314395 3.8606076327649577 0.734157698314395 C 3.8172753655724194 0.734157698314395 3.7821476295337657 0.6990299622757413 3.7821476295337657 0.6556976950832032 C 3.7821476295337657 0.6123654278906651 3.8172753655724194 0.5772376918520113 3.8606076327649577 0.5772376918520113 C 3.9039398999574955 0.5772376918520113 3.9390676359961496 0.6123654278906651 3.9390676359961496 0.6556976950832032 Z" fill="url(#gradient-894b6b78-71cb-4268-92b3-04b1be63ba5f_15)" transform="matrix(1,0,0,1,0,0)" fill-rule="nonzero"></path></g><g clip-path="url(#SvgjsClipPath353721e7717bc-2469-47a6-b626-6587aa7b2b21)"><path d=" M 3.4779911806135226 0.45075646507620215 C 3.4935906420815606 0.45075646507620215 3.508595208832597 0.45617661694221545 3.520724451118127 0.4662898271312401 C 3.5344731290221603 0.4777250255802682 3.542933853886181 0.4938532823523075 3.544553289504685 0.511667074155851 C 3.5461727251231894 0.5294808659593945 3.540752573257176 0.5468319618719368 3.529317374808148 0.5605806397759706 C 3.5056868346605903 0.5889372879530399 3.4633832103404867 0.5928041036135493 3.4350265621634177 0.5691405137594915 C 3.406669913986348 0.5455099736119338 3.402836148032339 0.5032063492918305 3.4264666881798966 0.4748497011147611 C 3.4379018866289246 0.46110102321072755 3.454030143400964 0.4526402983467068 3.4718439352045074 0.45102086272820285 C 3.4739260667140126 0.4508225644892023 3.4759751485170174 0.45075646507620204 3.4780242303200226 0.45075646507620204 Z M 3.4778589817875223 0.5407838655824223 C 3.4844689230875385 0.5407838655824223 3.4910788643875543 0.5379415908234153 3.495639723884566 0.532488389250902 C 3.4995726389580755 0.5277622812213905 3.50145647222858 0.5217472346383758 3.5008946272180785 0.5156330389358609 C 3.500332782207577 0.5094857935268458 3.49742440803557 0.5039334428348323 3.4926652502995585 0.49996747805482256 C 3.4828825371755343 0.4918042005493025 3.468274566902499 0.4931261888093058 3.4601443391034787 0.5029089019333297 C 3.4519810615979587 0.5126916150573536 3.453336099564462 0.5272665356238891 3.463085762981986 0.5354298131294092 C 3.4673822248269968 0.539032231137918 3.4726371281605095 0.5407838655824223 3.477858981787522 0.5407838655824223 Z" fill="url(#gradient-894b6b78-71cb-4268-92b3-04b1be63ba5f_16)" transform="matrix(1,0,0,1,0,0)" fill-rule="nonzero"></path></g><g clip-path="url(#SvgjsClipPath353721e7717bc-2469-47a6-b626-6587aa7b2b21)"><path d=" M 3.706463801648581 0.6803527761322633 C 3.750717358652189 0.6763207119392535 3.790740553223787 0.6553341483117022 3.8191633008138566 0.6211938014971189 C 3.8778926292645 0.5507318272389466 3.868341264085977 0.44566681027518984 3.7978792898278044 0.38693748182454635 L 3.784196711336771 0.3755353330820185 C 3.773092009952744 0.3821783240885347 3.7613924138517154 0.3878959233130488 3.7491309727401854 0.39239068339705974 L 3.7283096576451342 0.40005821530507835 L 3.762912700350719 0.42887755937314875 C 3.810239880058835 0.46830585922774526 3.8166515231198503 0.5388669826054177 3.777223223265254 0.5861941623135333 C 3.7581204929082075 0.6090976089180892 3.7312510815236415 0.6232098335936238 3.701539395380069 0.6259199095266305 C 3.671794659529996 0.6285969357531369 3.642843116635926 0.6195743658786148 3.6199066203248695 0.6004716355215682 L 3.5233023282251335 0.5199625504873715 L 3.488335738748048 0.561935677742474 L 3.5849400308477843 0.6424117130701708 C 3.6190803776623675 0.6708675103667403 3.6622102446449727 0.6843187409122732 3.706496851355081 0.6802866767192634 Z" fill="url(#gradient-894b6b78-71cb-4268-92b3-04b1be63ba5f_17)" transform="matrix(1,0,0,1,0,0)" fill-rule="nonzero"></path></g></g><g><path d=" M 0.6930000000000001 0.014000000000000012 L 0.6930000000000001 0.03399999999999992 Q 0.661 0.03799999999999992 0.645 0.05049999999999999 Q 0.629 0.06299999999999994 0.6235 0.08999999999999997 Q 0.618 0.11699999999999999 0.618 0.16599999999999993 L 0.618 0.724 Q 0.606 0.723 0.5935 0.723 Q 0.581 0.723 0.5670000000000001 0.724 L 0.133 0.17399999999999993 L 0.133 0.5579999999999999 Q 0.133 0.613 0.139 0.6425 Q 0.145 0.6719999999999999 0.1655 0.6845 Q 0.186 0.697 0.23 0.702 L 0.23 0.722 Q 0.211 0.72 0.18 0.7195 Q 0.149 0.719 0.122 0.719 Q 0.099 0.719 0.075 0.7195 Q 0.051000000000000004 0.72 0.035 0.722 L 0.035 0.702 Q 0.067 0.697 0.083 0.6849999999999999 Q 0.099 0.6729999999999999 0.1045 0.6455 Q 0.11 0.618 0.11 0.57 L 0.11 0.12 Q 0.11 0.08299999999999996 0.1045 0.0655 Q 0.099 0.04799999999999993 0.0825 0.04149999999999998 Q 0.066 0.03499999999999992 0.035 0.03399999999999992 L 0.035 0.014000000000000012 Q 0.051000000000000004 0.015000000000000013 0.075 0.016000000000000014 Q 0.099 0.017000000000000015 0.122 0.017000000000000015 Q 0.146 0.017000000000000015 0.168 0.016000000000000014 Q 0.19 0.015000000000000013 0.20800000000000002 0.014000000000000012 L 0.595 0.491 L 0.595 0.17799999999999994 Q 0.595 0.123 0.589 0.09349999999999992 Q 0.583 0.06399999999999995 0.5625 0.050999999999999934 Q 0.542 0.03799999999999992 0.498 0.03399999999999992 L 0.498 0.014000000000000012 Q 0.517 0.015000000000000013 0.548 0.016000000000000014 Q 0.579 0.017000000000000015 0.606 0.017000000000000015 Q 0.63 0.017000000000000015 0.6535 0.016000000000000014 Q 0.677 0.015000000000000013 0.6930000000000001 0.014000000000000012 M 1.1139658203125 0 Q 1.2199658203125001 0 1.2994658203125002 0.04299999999999993 Q 1.3789658203125001 0.08599999999999997 1.4229658203125002 0.16649999999999998 Q 1.4669658203125002 0.24699999999999994 1.4669658203125002 0.362 Q 1.4669658203125002 0.474 1.4219658203125 0.5579999999999999 Q 1.3769658203125001 0.642 1.2964658203125001 0.689 Q 1.2159658203125001 0.736 1.1129658203125001 0.736 Q 1.0069658203125 0.736 0.9274658203125001 0.693 Q 0.8479658203125001 0.6499999999999999 0.8039658203125001 0.569 Q 0.7599658203125002 0.488 0.7599658203125002 0.37399999999999994 Q 0.7599658203125002 0.26199999999999996 0.8054658203125001 0.17799999999999994 Q 0.8509658203125001 0.09399999999999997 0.9304658203125001 0.04699999999999993 Q 1.0099658203125002 0 1.1139658203125 0 M 1.1099658203125 0.018000000000000016 Q 1.0539658203125002 0.018000000000000016 1.0124658203125 0.06299999999999994 Q 0.9709658203125001 0.10799999999999998 0.9484658203125002 0.18699999999999994 Q 0.9259658203125001 0.26599999999999996 0.9259658203125001 0.37 Q 0.9259658203125001 0.476 0.9514658203125002 0.5545 Q 0.9769658203125001 0.633 1.0204658203125 0.6755 Q 1.0639658203125002 0.718 1.1169658203125001 0.718 Q 1.1729658203125002 0.718 1.2144658203125 0.6729999999999999 Q 1.2559658203125001 0.628 1.2784658203125001 0.5485 Q 1.3009658203125 0.469 1.3009658203125 0.366 Q 1.3009658203125 0.25899999999999995 1.2754658203125002 0.18099999999999994 Q 1.2499658203125001 0.10299999999999998 1.2064658203125 0.0605 Q 1.1629658203125002 0.018000000000000016 1.1099658203125 0.018000000000000016 M 2.16802294921875 0.014000000000000012 L 2.16802294921875 0.03399999999999992 Q 2.14602294921875 0.041999999999999926 2.12152294921875 0.06899999999999995 Q 2.0970229492187498 0.09599999999999997 2.07602294921875 0.1529999999999999 L 1.86502294921875 0.724 Q 1.85702294921875 0.723 1.84802294921875 0.723 Q 1.83902294921875 0.723 1.83002294921875 0.723 Q 1.82202294921875 0.723 1.81302294921875 0.723 Q 1.80402294921875 0.723 1.79602294921875 0.724 L 1.54102294921875 0.09799999999999998 Q 1.52702294921875 0.061999999999999944 1.51002294921875 0.04849999999999999 Q 1.49302294921875 0.03499999999999992 1.47802294921875 0.03399999999999992 L 1.47802294921875 0.014000000000000012 Q 1.50802294921875 0.015000000000000013 1.54852294921875 0.016000000000000014 Q 1.58902294921875 0.017000000000000015 1.6300229492187501 0.017000000000000015 Q 1.67602294921875 0.017000000000000015 1.71652294921875 0.016000000000000014 Q 1.75702294921875 0.015000000000000013 1.78202294921875 0.014000000000000012 L 1.78202294921875 0.03399999999999992 Q 1.7330229492187499 0.03599999999999992 1.71802294921875 0.05049999999999999 Q 1.70302294921875 0.06499999999999995 1.72402294921875 0.118 L 1.90602294921875 0.581 L 1.88502294921875 0.606 L 2.02302294921875 0.23399999999999999 Q 2.05002294921875 0.15899999999999992 2.05102294921875 0.11599999999999999 Q 2.05202294921875 0.07299999999999995 2.03002294921875 0.05399999999999994 Q 2.0080229492187502 0.03499999999999992 1.96702294921875 0.03399999999999992 L 1.96702294921875 0.014000000000000012 Q 2.00102294921875 0.015000000000000013 2.03102294921875 0.016000000000000014 Q 2.06102294921875 0.017000000000000015 2.09202294921875 0.017000000000000015 Q 2.11402294921875 0.017000000000000015 2.13352294921875 0.016000000000000014 Q 2.15302294921875 0.015000000000000013 2.16802294921875 0.014000000000000012 M 2.454078125 0.01200000000000001 L 2.697078125 0.638 Q 2.7110781250000002 0.6739999999999999 2.7285781250000003 0.6875 Q 2.7460781250000004 0.701 2.760078125 0.702 L 2.760078125 0.722 Q 2.7300781250000004 0.72 2.689578125 0.7195 Q 2.6490781250000004 0.719 2.6080781250000005 0.719 Q 2.562078125 0.719 2.5210781250000003 0.7195 Q 2.4800781250000004 0.72 2.4560781250000003 0.722 L 2.4560781250000003 0.702 Q 2.507078125 0.7 2.520578125 0.6845 Q 2.534078125 0.6689999999999999 2.514078125 0.618 L 2.3440781250000002 0.1529999999999999 L 2.362078125 0.127 L 2.2100781250000003 0.5229999999999999 Q 2.1820781250000003 0.597 2.182578125 0.635 Q 2.183078125 0.6729999999999999 2.2070781250000002 0.6865 Q 2.2310781250000002 0.7 2.2710781250000003 0.702 L 2.2710781250000003 0.722 Q 2.2380781250000004 0.72 2.208078125 0.7195 Q 2.1780781250000003 0.719 2.147078125 0.719 Q 2.1250781250000004 0.719 2.105578125 0.7195 Q 2.0860781250000002 0.72 2.071078125 0.722 L 2.071078125 0.702 Q 2.092078125 0.698 2.1140781250000003 0.6749999999999999 Q 2.136078125 0.6519999999999999 2.1570781250000004 0.597 L 2.385078125 0.01200000000000001 Q 2.401078125 0.013000000000000012 2.419578125 0.013000000000000012 Q 2.438078125 0.013000000000000012 2.454078125 0.01200000000000001 M 2.5240781250000004 0.43399999999999994 L 2.5240781250000004 0.45399999999999996 L 2.2260781250000004 0.45399999999999996 L 2.236078125 0.43399999999999994 L 2.5240781250000004 0.43399999999999994" fill="#574545" fill-rule="nonzero"></path></g><g><path d=" M 4.096235480252705 0.014000000000000012 Q 4.121235480252706 0.015000000000000013 4.163735480252705 0.016000000000000014 Q 4.2062354802527055 0.017000000000000015 4.248235480252705 0.017000000000000015 Q 4.296235480252705 0.017000000000000015 4.341235480252705 0.016000000000000014 Q 4.386235480252705 0.015000000000000013 4.405235480252705 0.015000000000000013 Q 4.529235480252705 0.015000000000000013 4.590735480252706 0.05899999999999994 Q 4.652235480252705 0.10299999999999998 4.652235480252705 0.17199999999999993 Q 4.652235480252705 0.20699999999999996 4.631235480252705 0.24299999999999994 Q 4.6102354802527055 0.27899999999999997 4.566235480252706 0.30699999999999994 Q 4.522235480252705 0.33499999999999996 4.452235480252705 0.348 L 4.452235480252705 0.35 Q 4.546235480252705 0.357 4.601235480252705 0.38399999999999995 Q 4.656235480252706 0.411 4.680235480252706 0.44899999999999995 Q 4.704235480252706 0.487 4.704235480252706 0.528 Q 4.704235480252706 0.622 4.630735480252706 0.6719999999999999 Q 4.5572354802527055 0.722 4.428235480252705 0.722 Q 4.404235480252705 0.722 4.358735480252705 0.7205 Q 4.313235480252706 0.719 4.250235480252705 0.719 Q 4.2062354802527055 0.719 4.163735480252705 0.7195 Q 4.121235480252706 0.72 4.096235480252705 0.722 L 4.096235480252705 0.702 Q 4.128235480252705 0.7 4.144235480252705 0.694 Q 4.160235480252705 0.688 4.165735480252706 0.6699999999999999 Q 4.171235480252705 0.6519999999999999 4.171235480252705 0.616 L 4.171235480252705 0.12 Q 4.171235480252705 0.08299999999999996 4.165735480252706 0.0655 Q 4.160235480252705 0.04799999999999993 4.1437354802527055 0.04149999999999998 Q 4.127235480252706 0.03499999999999992 4.096235480252705 0.03399999999999992 L 4.096235480252705 0.014000000000000012 M 4.3922354802527055 0.03399999999999992 Q 4.353235480252706 0.03399999999999992 4.341735480252705 0.050999999999999934 Q 4.330235480252705 0.06799999999999995 4.330235480252705 0.12 L 4.330235480252705 0.616 Q 4.330235480252705 0.6679999999999999 4.343235480252705 0.6835 Q 4.356235480252705 0.699 4.399235480252705 0.699 Q 4.471235480252705 0.699 4.504735480252705 0.6535 Q 4.538235480252705 0.608 4.538235480252705 0.524 Q 4.538235480252705 0.44699999999999995 4.499735480252705 0.40499999999999997 Q 4.461235480252705 0.363 4.372235480252705 0.363 L 4.287235480252705 0.363 Q 4.287235480252705 0.363 4.287235480252705 0.3545 Q 4.287235480252705 0.346 4.287235480252705 0.346 L 4.373235480252705 0.346 Q 4.420235480252705 0.346 4.445235480252705 0.32349999999999995 Q 4.470235480252706 0.301 4.480235480252706 0.26349999999999996 Q 4.490235480252705 0.22599999999999998 4.490235480252705 0.18299999999999994 Q 4.490235480252705 0.10899999999999999 4.467235480252706 0.07150000000000001 Q 4.444235480252705 0.03399999999999992 4.3922354802527055 0.03399999999999992 M 5.330222296658955 0.013000000000000012 L 5.330222296658955 0.03299999999999992 Q 5.308222296658955 0.041999999999999926 5.285222296658955 0.0685 Q 5.262222296658956 0.09499999999999997 5.234222296658955 0.1489999999999999 L 5.045222296658955 0.5229999999999999 L 4.998222296658955 0.5229999999999999 L 4.764222296658955 0.08999999999999997 Q 4.746222296658956 0.05599999999999994 4.731722296658956 0.04499999999999993 Q 4.717222296658955 0.03399999999999992 4.7062222966589555 0.03399999999999992 L 4.7062222966589555 0.013000000000000012 Q 4.733222296658955 0.016000000000000014 4.761722296658955 0.017000000000000015 Q 4.790222296658955 0.018000000000000016 4.824222296658955 0.018000000000000016 Q 4.8682222966589555 0.018000000000000016 4.919222296658956 0.01649999999999996 Q 4.970222296658955 0.015000000000000013 5.012222296658956 0.013000000000000012 L 5.012222296658956 0.03399999999999992 Q 4.987222296658955 0.03399999999999992 4.967222296658955 0.03799999999999992 Q 4.947222296658955 0.041999999999999926 4.939222296658955 0.05249999999999999 Q 4.931222296658955 0.06299999999999994 4.943222296658956 0.08599999999999997 L 5.101222296658955 0.38999999999999996 L 5.070222296658955 0.43 L 5.173222296658955 0.22299999999999998 Q 5.210222296658955 0.1509999999999999 5.2127222966589555 0.10999999999999999 Q 5.215222296658955 0.06899999999999995 5.192722296658955 0.05149999999999999 Q 5.170222296658955 0.03399999999999992 5.129222296658956 0.03299999999999992 L 5.129222296658956 0.013000000000000012 Q 5.163222296658955 0.014000000000000012 5.193222296658956 0.015000000000000013 Q 5.223222296658955 0.016000000000000014 5.254222296658956 0.016000000000000014 Q 5.276222296658955 0.016000000000000014 5.295722296658955 0.015000000000000013 Q 5.3152222966589555 0.014000000000000012 5.330222296658955 0.013000000000000012 M 5.116222296658956 0.365 L 5.116222296658956 0.616 Q 5.116222296658956 0.6519999999999999 5.121722296658955 0.6699999999999999 Q 5.127222296658955 0.688 5.143222296658955 0.694 Q 5.159222296658955 0.7 5.191222296658955 0.702 L 5.191222296658955 0.722 Q 5.164222296658955 0.72 5.121722296658955 0.7195 Q 5.079222296658955 0.719 5.037222296658955 0.719 Q 4.990222296658955 0.719 4.9482222966589555 0.7195 Q 4.906222296658955 0.72 4.882222296658955 0.722 L 4.882222296658955 0.702 Q 4.914222296658955 0.7 4.930222296658955 0.694 Q 4.946222296658955 0.688 4.951722296658955 0.6699999999999999 Q 4.957222296658955 0.6519999999999999 4.957222296658955 0.616 L 4.957222296658955 0.411 L 5.044222296658956 0.473 L 5.116222296658956 0.365 M 5.980208136502705 0.014000000000000012 Q 5.976208136502705 0.06499999999999995 5.974708136502705 0.11199999999999999 Q 5.973208136502705 0.15899999999999992 5.973208136502705 0.18399999999999994 Q 5.973208136502705 0.20599999999999996 5.974208136502705 0.22599999999999998 Q 5.9752081365027045 0.24599999999999994 5.976208136502705 0.25999999999999995 L 5.953208136502705 0.25999999999999995 Q 5.937208136502705 0.17599999999999993 5.9127081365027045 0.127 Q 5.888208136502705 0.07799999999999996 5.854208136502705 0.057499999999999996 Q 5.820208136502705 0.03699999999999992 5.774208136502705 0.03699999999999992 L 5.751208136502705 0.03699999999999992 L 5.751208136502705 0.608 Q 5.751208136502705 0.648 5.759708136502705 0.6679999999999999 Q 5.768208136502705 0.688 5.791208136502705 0.6945 Q 5.814208136502705 0.701 5.858208136502705 0.702 L 5.858208136502705 0.722 Q 5.827208136502705 0.721 5.775708136502705 0.72 Q 5.724208136502705 0.719 5.668208136502705 0.719 Q 5.613208136502705 0.719 5.564208136502705 0.72 Q 5.515208136502705 0.721 5.485208136502705 0.722 L 5.485208136502705 0.702 Q 5.530208136502705 0.701 5.553208136502705 0.6945 Q 5.576208136502705 0.688 5.5842081365027045 0.6679999999999999 Q 5.592208136502705 0.648 5.592208136502705 0.608 L 5.592208136502705 0.03699999999999992 L 5.570208136502705 0.03699999999999992 Q 5.524208136502705 0.03699999999999992 5.490208136502705 0.057499999999999996 Q 5.456208136502705 0.07799999999999996 5.432208136502705 0.12649999999999995 Q 5.408208136502705 0.17499999999999993 5.390208136502705 0.25999999999999995 L 5.367208136502705 0.25999999999999995 Q 5.369208136502705 0.24599999999999994 5.369708136502705 0.22599999999999998 Q 5.370208136502705 0.20599999999999996 5.370208136502705 0.18399999999999994 Q 5.370208136502705 0.15899999999999992 5.368708136502705 0.11199999999999999 Q 5.367208136502705 0.06499999999999995 5.363208136502705 0.014000000000000012 Q 5.409208136502705 0.015000000000000013 5.463708136502705 0.016000000000000014 Q 5.518208136502705 0.017000000000000015 5.573208136502705 0.017000000000000015 Q 5.628208136502705 0.017000000000000015 5.672208136502705 0.017000000000000015 Q 5.717208136502705 0.017000000000000015 5.7717081365027045 0.017000000000000015 Q 5.826208136502705 0.017000000000000015 5.881208136502705 0.016000000000000014 Q 5.936208136502705 0.015000000000000013 5.980208136502705 0.014000000000000012 M 6.577237921658955 0.014000000000000012 Q 6.573237921658955 0.05799999999999994 6.571737921658955 0.09899999999999998 Q 6.570237921658955 0.14 6.570237921658955 0.16199999999999992 Q 6.570237921658955 0.18199999999999994 6.5712379216589545 0.19999999999999996 Q 6.572237921658955 0.21799999999999997 6.573237921658955 0.22999999999999998 L 6.550237921658955 0.22999999999999998 Q 6.540237921658955 0.15699999999999992 6.519237921658955 0.11449999999999994 Q 6.498237921658955 0.07199999999999995 6.464737921658955 0.05449999999999999 Q 6.431237921658955 0.03699999999999992 6.386237921658955 0.03699999999999992 L 6.3452379216589545 0.03699999999999992 Q 6.315237921658955 0.03699999999999992 6.300737921658955 0.041999999999999926 Q 6.286237921658955 0.04699999999999993 6.2812379216589544 0.0615 Q 6.2762379216589546 0.07599999999999996 6.2762379216589546 0.10799999999999998 L 6.2762379216589546 0.628 Q 6.2762379216589546 0.659 6.2812379216589544 0.6739999999999999 Q 6.286237921658955 0.689 6.300737921658955 0.694 Q 6.315237921658955 0.699 6.3452379216589545 0.699 L 6.394237921658955 0.699 Q 6.439237921658955 0.699 6.473737921658955 0.6795 Q 6.508237921658955 0.6599999999999999 6.5327379216589545 0.613 Q 6.557237921658955 0.566 6.570237921658955 0.486 L 6.593237921658955 0.486 Q 6.590237921658955 0.518 6.590237921658955 0.57 Q 6.590237921658955 0.593 6.591237921658955 0.635 Q 6.592237921658954 0.6769999999999999 6.597237921658955 0.722 Q 6.546237921658955 0.72 6.482237921658955 0.7195 Q 6.418237921658955 0.719 6.368237921658955 0.719 Q 6.334237921658954 0.719 6.278237921658954 0.719 Q 6.222237921658955 0.719 6.159237921658955 0.7195 Q 6.096237921658955 0.72 6.042237921658955 0.722 L 6.042237921658955 0.702 Q 6.074237921658955 0.7 6.090237921658955 0.694 Q 6.106237921658955 0.688 6.111737921658955 0.6699999999999999 Q 6.117237921658955 0.6519999999999999 6.117237921658955 0.616 L 6.117237921658955 0.12 Q 6.117237921658955 0.08299999999999996 6.111737921658955 0.0655 Q 6.106237921658955 0.04799999999999993 6.089737921658955 0.04149999999999998 Q 6.073237921658955 0.03499999999999992 6.042237921658955 0.03399999999999992 L 6.042237921658955 0.014000000000000012 Q 6.096237921658955 0.015000000000000013 6.159237921658955 0.016000000000000014 Q 6.222237921658955 0.017000000000000015 6.278237921658954 0.017000000000000015 Q 6.334237921658954 0.017000000000000015 6.368237921658955 0.017000000000000015 Q 6.4142379216589545 0.017000000000000015 6.472737921658955 0.01649999999999996 Q 6.5312379216589544 0.016000000000000014 6.577237921658955 0.014000000000000012 M 6.421237921658955 0.356 Q 6.421237921658955 0.356 6.421237921658955 0.366 Q 6.421237921658955 0.37599999999999995 6.421237921658955 0.37599999999999995 L 6.246237921658955 0.37599999999999995 Q 6.246237921658955 0.37599999999999995 6.246237921658955 0.366 Q 6.246237921658955 0.356 6.246237921658955 0.356 L 6.421237921658955 0.356 M 6.450237921658955 0.22399999999999998 Q 6.4462379216589545 0.28099999999999997 6.446737921658955 0.31099999999999994 Q 6.447237921658955 0.34099999999999997 6.447237921658955 0.366 Q 6.447237921658955 0.39099999999999996 6.448237921658955 0.421 Q 6.449237921658955 0.45099999999999996 6.453237921658955 0.508 L 6.4302379216589545 0.508 Q 6.425237921658955 0.473 6.411737921658955 0.44299999999999995 Q 6.398237921658954 0.413 6.373237921658955 0.39449999999999996 Q 6.348237921658955 0.37599999999999995 6.308237921658955 0.37599999999999995 L 6.308237921658955 0.356 Q 6.348237921658955 0.356 6.372237921658955 0.33399999999999996 Q 6.396237921658955 0.31199999999999994 6.409237921658955 0.2815 Q 6.4222379216589545 0.25099999999999995 6.427237921658954 0.22399999999999998 L 6.450237921658955 0.22399999999999998" fill="#574545" fill-rule="nonzero"></path></g><g></g></g><defs><clipPath id="SvgjsClipPath35374"><path d=" M 2.8550703125 -0.24569999999999992 h 1.107165167752706 v 1.2273999999999998 h -1.107165167752706 Z"></path></clipPath><clipPath id="SvgjsClipPath353721e7717bc-2469-47a6-b626-6587aa7b2b21"><path d=" M 2.8550703125 -0.24569999999999992 L 3.9622354802527058 -0.24569999999999992 L 3.9622354802527058 0.9816999999999999 L 2.8550703125 0.9816999999999999 Z"></path></clipPath><linearGradient id="gradient-894b6b78-71cb-4268-92b3-04b1be63ba5f_0" x1="0" x2="1" y1="0" y2="1"><stop stop-color="#d1595b" offset="0"></stop><stop stop-color="#ce5154" offset="1"></stop></linearGradient><linearGradient id="gradient-894b6b78-71cb-4268-92b3-04b1be63ba5f_1" x1="0" x2="1" y1="0" y2="1"><stop stop-color="#d76464" offset="0"></stop><stop stop-color="#d45d5f" offset="1"></stop></linearGradient><linearGradient id="gradient-894b6b78-71cb-4268-92b3-04b1be63ba5f_2" x1="0" x2="1" y1="0" y2="1"><stop stop-color="#d56162" offset="0"></stop><stop stop-color="#ce5154" offset="1"></stop></linearGradient><linearGradient id="gradient-894b6b78-71cb-4268-92b3-04b1be63ba5f_3" x1="0" x2="1" y1="0" y2="1"><stop stop-color="#da6c6c" offset="0"></stop><stop stop-color="#d76464" offset="1"></stop></linearGradient><linearGradient id="gradient-894b6b78-71cb-4268-92b3-04b1be63ba5f_4" x1="0" x2="1" y1="0" y2="1"><stop stop-color="#d96969" offset="0"></stop><stop stop-color="#d66263" offset="1"></stop></linearGradient><linearGradient id="gradient-894b6b78-71cb-4268-92b3-04b1be63ba5f_5" x1="0" x2="1" y1="0" y2="1"><stop stop-color="#db6d6d" offset="0"></stop><stop stop-color="#d45e60" offset="1"></stop></linearGradient><linearGradient id="gradient-894b6b78-71cb-4268-92b3-04b1be63ba5f_6" x1="0" x2="1" y1="0" y2="1"><stop stop-color="#e07876" offset="0"></stop><stop stop-color="#dc706f" offset="1"></stop></linearGradient><linearGradient id="gradient-894b6b78-71cb-4268-92b3-04b1be63ba5f_7" x1="0" x2="1" y1="0" y2="1"><stop stop-color="#d96a6a" offset="0"></stop><stop stop-color="#d66364" offset="1"></stop></linearGradient><linearGradient id="gradient-894b6b78-71cb-4268-92b3-04b1be63ba5f_8" x1="0" x2="1" y1="0" y2="1"><stop stop-color="#de7573" offset="0"></stop><stop stop-color="#d66364" offset="1"></stop></linearGradient><linearGradient id="gradient-894b6b78-71cb-4268-92b3-04b1be63ba5f_9" x1="0" x2="1" y1="0" y2="1"><stop stop-color="#dd7271" offset="0"></stop><stop stop-color="#d96a69" offset="1"></stop></linearGradient><linearGradient id="gradient-894b6b78-71cb-4268-92b3-04b1be63ba5f_10" x1="0" x2="1" y1="0" y2="1"><stop stop-color="#d76666" offset="0"></stop><stop stop-color="#d45e60" offset="1"></stop></linearGradient><linearGradient id="gradient-894b6b78-71cb-4268-92b3-04b1be63ba5f_11" x1="0" x2="1" y1="0" y2="1"><stop stop-color="#dd7270" offset="0"></stop><stop stop-color="#d56162" offset="1"></stop></linearGradient><linearGradient id="gradient-894b6b78-71cb-4268-92b3-04b1be63ba5f_12" x1="0" x2="1" y1="0" y2="1"><stop stop-color="#d45f60" offset="0"></stop><stop stop-color="#d15759" offset="1"></stop></linearGradient><linearGradient id="gradient-894b6b78-71cb-4268-92b3-04b1be63ba5f_13" x1="0" x2="1" y1="0" y2="1"><stop stop-color="#d56061" offset="0"></stop><stop stop-color="#d1595b" offset="1"></stop></linearGradient><linearGradient id="gradient-894b6b78-71cb-4268-92b3-04b1be63ba5f_14" x1="0" x2="1" y1="0" y2="1"><stop stop-color="#d66465" offset="0"></stop><stop stop-color="#cf5558" offset="1"></stop></linearGradient><linearGradient id="gradient-894b6b78-71cb-4268-92b3-04b1be63ba5f_15" x1="0" x2="1" y1="0" y2="1"><stop stop-color="#ce5255" offset="0"></stop><stop stop-color="#cb4a4f" offset="1"></stop></linearGradient><linearGradient id="gradient-894b6b78-71cb-4268-92b3-04b1be63ba5f_16" x1="0" x2="1" y1="0" y2="1"><stop stop-color="#d45f61" offset="0"></stop><stop stop-color="#574545" offset="1"></stop></linearGradient><linearGradient id="gradient-894b6b78-71cb-4268-92b3-04b1be63ba5f_17" x1="0" x2="1" y1="0" y2="1"><stop stop-color="#d45f60" offset="0"></stop><stop stop-color="#cc4e51" offset="1"></stop></linearGradient></defs></svg>